<?xml version="1.0" encoding="UTF-8"?>
<svg width="380px" height="208px" viewBox="0 0 380 208" version="1.1" xmlns="http://www.w3.org/2000/svg" xmlns:xlink="http://www.w3.org/1999/xlink">
    <!-- Generator: Sketch 52.4 (67378) - http://www.bohemiancoding.com/sketch -->
    <title>resorces/img_plugoff_noti@2x</title>
    <desc>Created with Sketch.</desc>
    <g id="resorces/img_plugoff_noti" stroke="none" stroke-width="1" fill="none" fill-rule="evenodd">
        <g id="img_plugoff_noti">
            <path d="M1.5,206.5 L378.5,206.5 L378.5,8 C378.5,4.41014913 375.589851,1.5 372,1.5 L8,1.5 C4.41014913,1.5 1.5,4.41014913 1.5,8 L1.5,206.5 Z" id="BG" stroke="#DEE0E5" stroke-width="3" fill="#FFFFFF"></path>
            <text id="박태준-선생님,-플러그-오프-시간에" font-family="AppleSDGothicNeo-Regular, Apple SD Gothic Neo" font-size="22" font-weight="normal" fill="#4A4A4A">
                <tspan x="20" y="121">박태준</tspan>
                <tspan x="77.09" y="121" font-family="SFProDisplay-Regular, SF Pro Display"> </tspan>
                <tspan x="81.6017187" y="121">선생님</tspan>
                <tspan x="138.691719" y="121" font-family="SFProDisplay-Regular, SF Pro Display">, </tspan>
                <tspan x="20" y="149" font-family="AppleSDGothicNeo-Bold, Apple SD Gothic Neo" font-weight="bold">플러그</tspan>
                <tspan x="77.09" y="149" font-family="SFProDisplay-Bold, SF Pro Display" font-weight="bold"> </tspan>
                <tspan x="81.4405859" y="149" font-family="AppleSDGothicNeo-Bold, Apple SD Gothic Neo" font-weight="bold">오프</tspan>
                <tspan x="119.500586" y="149" font-family="SFProDisplay-Regular, SF Pro Display"> </tspan>
                <tspan x="124.012305" y="149">시간에</tspan>
                <tspan x="181.102305" y="149" font-family="SFProDisplay-Regular, SF Pro Display"> </tspan>
                <tspan x="185.614023" y="149" font-family="SFProDisplay-Bold, SF Pro Display" font-weight="bold">4</tspan>
                <tspan x="199.868906" y="149" font-family="AppleSDGothicNeo-Bold, Apple SD Gothic Neo" font-weight="bold">명</tspan>
                <tspan x="218.898906" y="149">이</tspan>
                <tspan x="237.928906" y="149" font-family="SFProDisplay-Regular, SF Pro Display"></tspan>
                <tspan x="20" y="177">메시지를</tspan>
                <tspan x="96.12" y="177" font-family="SFProDisplay-Regular, SF Pro Display"> </tspan>
                <tspan x="100.631719" y="177">보냈습니다</tspan>
                <tspan x="195.781719" y="177" font-family="SFProDisplay-Regular, SF Pro Display">.</tspan>
            </text>
            <path d="M8,0 L372,0 C376.418278,-8.11624501e-16 380,3.581722 380,8 L380,30 L0,30 L0,8 C-5.41083001e-16,3.581722 3.581722,8.11624501e-16 8,0 Z" id="Rectangle" fill="#DEE0E5"></path>
            <rect id="Rectangle-Copy-4" fill="#DEE0E5" x="20" y="47" width="72" height="29" rx="4"></rect>
        </g>
    </g>
</svg>