<?xml version="1.0" encoding="UTF-8"?>
<svg width="172px" height="50px" viewBox="0 0 172 50" version="1.1" xmlns="http://www.w3.org/2000/svg" xmlns:xlink="http://www.w3.org/1999/xlink">
    <!-- Generator: Sketch 52.4 (67378) - http://www.bohemiancoding.com/sketch -->
    <title>resorces/btn_app_store@2x</title>
    <desc>Created with Sketch.</desc>
    <g id="resorces/btn_app_store" stroke="none" stroke-width="1" fill="none" fill-rule="evenodd">
        <g id="btn_app_store">
            <rect id="Rectangle-1" stroke="#9B9B9B" stroke-width="2" x="1" y="1" width="170" height="48" rx="10"></rect>
            <path d="M31.6886857,16.2488095 C34.9314286,16.2488095 37.0050286,19.3863333 37.0050286,19.3863333 C37.0050286,19.3863333 33.8418286,21.1028571 33.8418286,24.8307381 C33.8418286,29.2553095 37.8155429,30.5423571 37.8155429,30.5423571 C37.8155429,30.5423571 34.6790857,37.9843095 31.1572571,37.9843095 C29.1769143,37.9843095 29.0445714,36.8450238 26.4128,36.8450238 C24.1273143,36.8450238 23.3565714,37.9843095 21.6155429,37.9843095 C18.2925714,37.9843095 14,30.7301667 14,24.8307381 C14,18.7027619 18.3460571,16.2488095 21.0704,16.2488095 C23.4628571,16.2488095 24.4592,17.6566905 26.3860571,17.6566905 C28.0077714,17.6566905 29.2838857,16.2488095 31.6886857,16.2488095 L31.6886857,16.2488095 Z M31.1312,10 C31.6091429,13.0035714 28.8848,16.7183333 25.6290286,16.5975 C25.1504,12.7757143 28.6592,10.201619 31.1312,10 Z M55.7131162,17.814169 L57.9253364,17.814169 L63.8035214,32.8572661 L61.5913013,32.8572661 L59.9479377,28.327482 L53.5851711,28.327482 L51.8996701,32.8572661 L49.856,32.8572661 L55.7131162,17.814169 Z M54.217234,26.6419809 L59.3158748,26.6419809 L56.8086919,19.6260826 L56.7665544,19.6260826 L54.217234,26.6419809 Z M65.0465785,21.9647154 L66.8374234,21.9647154 L66.8374234,23.4395288 L66.8795609,23.4395288 C67.174525,22.8355546 67.6380332,22.3966264 68.2700993,22.1227311 C68.9021653,21.8488358 69.5974276,21.7118902 70.3559069,21.7118902 C71.1986616,21.7118902 71.9325495,21.8663929 72.5575926,22.175403 C73.1826357,22.4844131 73.7023267,22.9022727 74.1166811,23.4289944 C74.5310356,23.9557162 74.8435524,24.5631928 75.0542411,25.2514425 C75.2649298,25.9396922 75.3702726,26.6700687 75.3702726,27.4425939 C75.3702726,28.2151191 75.2684412,28.9454956 75.0647755,29.6337453 C74.8611098,30.321995 74.5521043,30.9224488 74.1377499,31.4351246 C73.7233955,31.9478004 73.2037045,32.3516143 72.5786614,32.6465785 C71.9536183,32.9415426 71.2267532,33.0890225 70.3980444,33.0890225 C70.131172,33.0890225 69.8327009,33.0609311 69.5026219,33.0047474 C69.172543,32.9485638 68.8459804,32.8572667 68.5229244,32.7308535 C68.1998684,32.6044403 67.8943744,32.4323805 67.6064332,32.2146688 C67.318492,31.9969572 67.0762037,31.7265774 66.8795609,31.4035214 L66.8374234,31.4035214 L66.8374234,37.0078125 L65.0465785,37.0078125 L65.0465785,21.9647154 Z M73.4740838,27.3161813 C73.4740838,26.8105285 73.4073668,26.3154175 73.2739306,25.8308335 C73.1404944,25.3462495 72.9368318,24.9143442 72.6629365,24.5351045 C72.3890412,24.1558649 72.0378986,23.8538823 71.6094983,23.6291477 C71.181098,23.4044131 70.6789641,23.2920475 70.1030817,23.2920475 C69.4991075,23.2920475 68.9864393,23.4114359 68.565062,23.6502165 C68.1436846,23.888997 67.7995649,24.2015138 67.5326926,24.5877764 C67.2658202,24.974039 67.0726918,25.4129672 66.9533016,25.9045742 C66.8339113,26.3961811 66.7742171,26.8948035 66.7742171,27.4004564 C66.7742171,27.934201 66.8374227,28.4503806 66.9638359,28.9490105 C67.0902492,29.4476404 67.2904004,29.8865686 67.5642957,30.2658082 C67.838191,30.6450478 68.192845,30.9505418 68.6282683,31.1822994 C69.0636915,31.414057 69.5904054,31.529934 70.2084255,31.529934 C70.8264457,31.529934 71.3426252,31.4105455 71.7569796,31.171765 C72.171334,30.9329845 72.5049195,30.6169562 72.7577459,30.2236707 C73.0105723,29.8303851 73.1931664,29.3809227 73.3055337,28.8752698 C73.417901,28.3696169 73.4740838,27.849926 73.4740838,27.3161813 Z M77.5403552,21.9647154 L79.3312001,21.9647154 L79.3312001,23.4395288 L79.3733376,23.4395288 C79.6683018,22.8355546 80.1318099,22.3966264 80.763876,22.1227311 C81.3959421,21.8488358 82.0912043,21.7118902 82.8496836,21.7118902 C83.6924383,21.7118902 84.4263263,21.8663929 85.0513694,22.175403 C85.6764125,22.4844131 86.1961035,22.9022727 86.6104579,23.4289944 C87.0248123,23.9557162 87.3373292,24.5631928 87.5480178,25.2514425 C87.7587065,25.9396922 87.8640493,26.6700687 87.8640493,27.4425939 C87.8640493,28.2151191 87.762218,28.9454956 87.5585522,29.6337453 C87.3548865,30.321995 87.0458811,30.9224488 86.6315266,31.4351246 C86.2171722,31.9478004 85.6974812,32.3516143 85.0724381,32.6465785 C84.447395,32.9415426 83.72053,33.0890225 82.8918211,33.0890225 C82.6249488,33.0890225 82.3264776,33.0609311 81.9963987,33.0047474 C81.6663197,32.9485638 81.3397572,32.8572667 81.0167012,32.7308535 C80.6936452,32.6044403 80.3881512,32.4323805 80.10021,32.2146688 C79.8122688,31.9969572 79.5699804,31.7265774 79.3733376,31.4035214 L79.3312001,31.4035214 L79.3312001,37.0078125 L77.5403552,37.0078125 L77.5403552,21.9647154 Z M85.9678606,27.3161813 C85.9678606,26.8105285 85.9011435,26.3154175 85.7677073,25.8308335 C85.6342712,25.3462495 85.4306085,24.9143442 85.1567132,24.5351045 C84.8828179,24.1558649 84.5316754,23.8538823 84.103275,23.6291477 C83.6748747,23.4044131 83.1727408,23.2920475 82.5968584,23.2920475 C81.9928842,23.2920475 81.4802161,23.4114359 81.0588387,23.6502165 C80.6374613,23.888997 80.2933416,24.2015138 80.0264693,24.5877764 C79.759597,24.974039 79.5664685,25.4129672 79.4470783,25.9045742 C79.327688,26.3961811 79.2679938,26.8948035 79.2679938,27.4004564 C79.2679938,27.934201 79.3311995,28.4503806 79.4576127,28.9490105 C79.5840259,29.4476404 79.7841771,29.8865686 80.0580724,30.2658082 C80.3319677,30.6450478 80.6866217,30.9505418 81.122045,31.1822994 C81.5574683,31.414057 82.0841821,31.529934 82.7022022,31.529934 C83.3202224,31.529934 83.8364019,31.4105455 84.2507564,31.171765 C84.6651108,30.9329845 84.9986962,30.6169562 85.2515226,30.2236707 C85.5043491,29.8303851 85.6869432,29.3809227 85.7993105,28.8752698 C85.9116778,28.3696169 85.9678606,27.849926 85.9678606,27.3161813 Z M104.824404,22.2175405 C104.712037,21.1360053 104.322268,20.3529574 103.655088,19.8683734 C102.987907,19.3837894 102.13463,19.1415011 101.095233,19.1415011 C100.673855,19.1415011 100.259507,19.1836382 99.8521757,19.2679137 C99.4448443,19.3521891 99.0831674,19.4926462 98.7671344,19.6892889 C98.4511014,19.8859317 98.1982787,20.1492886 98.0086589,20.4793676 C97.8190391,20.8094465 97.7242306,21.2202833 97.7242306,21.7118902 C97.7242306,22.1754053 97.8611762,22.5511279 98.1350715,22.8390691 C98.4089668,23.1270103 98.774155,23.3622758 99.2306472,23.5448726 C99.6871393,23.7274695 100.203319,23.8784608 100.779201,23.9978511 C101.355084,24.1172413 101.941492,24.2471641 102.538443,24.3876232 C103.135394,24.5280823 103.721802,24.6931193 104.297685,24.8827391 C104.873567,25.0723589 105.389747,25.328693 105.846239,25.651749 C106.302731,25.974805 106.667919,26.3821303 106.941815,26.8737373 C107.21571,27.3653442 107.352656,27.9833551 107.352656,28.7277885 C107.352656,29.5284055 107.173573,30.2131334 106.815402,30.7819929 C106.457231,31.3508524 105.997235,31.8143605 105.435398,32.1725313 C104.873562,32.5307021 104.245016,32.7905475 103.549744,32.9520755 C102.854471,33.1136035 102.16272,33.1943663 101.474471,33.1943663 C100.631716,33.1943663 99.8346222,33.0890235 99.0831658,32.8783349 C98.3317095,32.6676462 97.6715615,32.3481065 97.1027021,31.9197061 C96.5338426,31.4913058 96.0843802,30.9435234 95.7543012,30.2763426 C95.4242223,29.6091617 95.2591853,28.819091 95.2591853,27.9061067 L97.155374,27.9061067 C97.155374,28.5381727 97.2782739,29.0824437 97.5240774,29.5389358 C97.7698808,29.995428 98.092932,30.3711505 98.4932405,30.6661147 C98.893549,30.9610789 99.3605686,31.1787872 99.8943132,31.3192464 C100.428058,31.4597055 100.97584,31.529934 101.537677,31.529934 C101.987146,31.529934 102.44012,31.4877969 102.896612,31.4035214 C103.353104,31.3192459 103.763941,31.1752775 104.129135,30.9716118 C104.494328,30.767946 104.789288,30.4905434 105.014023,30.1393956 C105.238757,29.7882478 105.351123,29.3387853 105.351123,28.7909947 C105.351123,28.271296 105.214177,27.8499249 104.940282,27.5268689 C104.666387,27.203813 104.301199,26.940456 103.844706,26.7367903 C103.388214,26.5331246 102.872035,26.3680876 102.296152,26.2416744 C101.72027,26.1152612 101.133862,25.9853384 100.536911,25.8519022 C99.9399592,25.7184661 99.3535512,25.5639634 98.7776688,25.3883894 C98.2017864,25.2128155 97.6856068,24.9810615 97.2291147,24.6931203 C96.7726225,24.405179 96.4074343,24.0329679 96.133539,23.5764758 C95.8596437,23.1199836 95.7226981,22.5476213 95.7226981,21.8593716 C95.7226981,21.1008923 95.8772008,20.4442557 96.1862109,19.8894422 C96.4952209,19.3346286 96.9060577,18.8781433 97.4187335,18.5199726 C97.9314093,18.1618018 98.514306,17.8949335 99.1674409,17.7193595 C99.8205758,17.5437856 100.491258,17.456 101.179508,17.456 C101.952033,17.456 102.668364,17.5472971 103.328522,17.7298939 C103.98868,17.9124908 104.568065,18.2004277 105.066695,18.5937132 C105.565325,18.9869988 105.958604,19.4821098 106.246545,20.0790611 C106.534487,20.6760123 106.692501,21.3888317 106.720593,22.2175405 L104.824404,22.2175405 Z M111.966715,21.9647154 L114.136797,21.9647154 L114.136797,23.5448726 L111.966715,23.5448726 L111.966715,30.3079457 C111.966715,30.5186344 111.984272,30.6871828 112.019387,30.813596 C112.054501,30.9400093 112.121218,31.0383292 112.21954,31.1085587 C112.317861,31.1787883 112.454807,31.2244368 112.630381,31.2455057 C112.805955,31.2665746 113.034197,31.2771088 113.315116,31.2771088 L114.136797,31.2771088 L114.136797,32.8572661 L112.767328,32.8572661 C112.303813,32.8572661 111.907022,32.8256633 111.576943,32.7624567 C111.246864,32.6992501 110.979995,32.583373 110.77633,32.4148221 C110.572664,32.2462711 110.421673,32.0074942 110.323351,31.6984841 C110.22503,31.389474 110.17587,30.9821487 110.17587,30.4764958 L110.17587,23.5448726 L108.321819,23.5448726 L108.321819,21.9647154 L110.17587,21.9647154 L110.17587,18.699057 L111.966715,18.699057 L111.966715,21.9647154 Z M115.527336,27.4215251 C115.527336,26.6209081 115.639701,25.8729745 115.864436,25.1777018 C116.089171,24.4824291 116.426267,23.878464 116.875737,23.3657882 C117.325206,22.8531123 117.880011,22.4492984 118.540169,22.1543343 C119.200327,21.8593701 119.958795,21.7118902 120.815595,21.7118902 C121.686442,21.7118902 122.448421,21.8593701 123.101556,22.1543343 C123.754691,22.4492984 124.305985,22.8531123 124.755454,23.3657882 C125.204923,23.878464 125.54202,24.4824291 125.766755,25.1777018 C125.991489,25.8729745 126.103855,26.6209081 126.103855,27.4215251 C126.103855,28.2221421 125.991489,28.9665643 125.766755,29.654814 C125.54202,30.3430638 125.204923,30.9435175 124.755454,31.4561933 C124.305985,31.9688691 123.754691,32.3691716 123.101556,32.6571128 C122.448421,32.9450541 121.686442,33.0890225 120.815595,33.0890225 C119.958795,33.0890225 119.200327,32.9450541 118.540169,32.6571128 C117.880011,32.3691716 117.325206,31.9688691 116.875737,31.4561933 C116.426267,30.9435175 116.089171,30.3430638 115.864436,29.654814 C115.639701,28.9665643 115.527336,28.2221421 115.527336,27.4215251 Z M117.423524,27.4215251 C117.423524,28.081683 117.51131,28.6680911 117.686884,29.1807669 C117.862458,29.6934427 118.104746,30.1218366 118.413756,30.4659614 C118.722766,30.8100863 119.084443,31.0734432 119.498798,31.2560401 C119.913152,31.4386369 120.35208,31.529934 120.815595,31.529934 C121.27911,31.529934 121.718039,31.4386369 122.132393,31.2560401 C122.546748,31.0734432 122.908424,30.8100863 123.217434,30.4659614 C123.526444,30.1218366 123.768733,29.6934427 123.944307,29.1807669 C124.119881,28.6680911 124.207666,28.081683 124.207666,27.4215251 C124.207666,26.7613672 124.119881,26.1749592 123.944307,25.6622834 C123.768733,25.1496076 123.526444,24.7177022 123.217434,24.3665544 C122.908424,24.0154066 122.546748,23.7485383 122.132393,23.5659414 C121.718039,23.3833445 121.27911,23.2920475 120.815595,23.2920475 C120.35208,23.2920475 119.913152,23.3833445 119.498798,23.5659414 C119.084443,23.7485383 118.722766,24.0154066 118.413756,24.3665544 C118.104746,24.7177022 117.862458,25.1496076 117.686884,25.6622834 C117.51131,26.1749592 117.423524,26.7613672 117.423524,27.4215251 Z M128.147525,21.9647154 L129.833026,21.9647154 L129.833026,24.2612106 L129.875164,24.2612106 C130.310587,23.3763181 130.844324,22.723193 131.47639,22.3018156 C132.108456,21.8804382 132.909061,21.6837984 133.878229,21.7118902 L133.878229,23.6080789 C133.161887,23.6080789 132.550899,23.7063988 132.045246,23.9030416 C131.539593,24.0996844 131.132268,24.3876213 130.823258,24.7668609 C130.514248,25.1461006 130.289517,25.6060973 130.149058,26.1468649 C130.008598,26.6876326 129.93837,27.3091549 129.93837,28.0114505 L129.93837,32.8572661 L128.147525,32.8572661 L128.147525,21.9647154 Z M144.138717,29.4019889 C143.899936,30.6239833 143.373222,31.5439768 142.558559,32.1619969 C141.743896,32.7800171 140.71856,33.0890225 139.48252,33.0890225 C138.611673,33.0890225 137.856717,32.9485655 137.217628,32.6676472 C136.578539,32.386729 136.041291,31.9934493 135.605867,31.4877965 C135.170444,30.9821436 134.843881,30.3781784 134.62617,29.6758828 C134.408458,28.9735872 134.285558,28.2080964 134.257466,27.3793876 C134.257466,26.5506788 134.383878,25.7922109 134.636704,25.1039611 C134.889531,24.4157114 135.244185,23.8187691 135.700677,23.3131162 C136.157169,22.8074634 136.697928,22.4141837 137.322972,22.1332655 C137.948015,21.8523472 138.632743,21.7118902 139.377176,21.7118902 C140.346344,21.7118902 141.15046,21.9120415 141.789549,22.31235 C142.428638,22.7126585 142.941307,23.2218152 143.327569,23.8398353 C143.713832,24.4578555 143.9807,25.1320492 144.128182,25.8624366 C144.275664,26.5928241 144.335358,27.2880863 144.307267,27.9482442 L136.153655,27.9482442 C136.139609,28.4258052 136.195792,28.8787791 136.322205,29.3071795 C136.448618,29.7355798 136.652281,30.1148137 136.933199,30.4448927 C137.214118,30.7749716 137.572283,31.0383285 138.007706,31.2349713 C138.44313,31.4316141 138.955798,31.529934 139.545726,31.529934 C140.304205,31.529934 140.925728,31.3543627 141.410312,31.0032149 C141.894896,30.6520671 142.214435,30.1183304 142.36894,29.4019889 L144.138717,29.4019889 Z M142.411078,26.3680869 C142.382986,25.9467096 142.288178,25.5464071 142.12665,25.1671674 C141.965122,24.7879278 141.747413,24.4613652 141.473518,24.1874699 C141.199623,23.9135746 140.876572,23.6958663 140.504355,23.5343383 C140.132138,23.3728103 139.721301,23.2920475 139.271832,23.2920475 C138.808317,23.2920475 138.390457,23.3728103 138.018241,23.5343383 C137.646024,23.6958663 137.326484,23.9170861 137.059612,24.1980043 C136.79274,24.4789226 136.582054,24.8054851 136.427549,25.1777018 C136.273044,25.5499185 136.181747,25.9467096 136.153655,26.3680869 L142.411078,26.3680869 Z" id="Imported-Layers" fill="#9B9B9B"></path>
        </g>
    </g>
</svg>