<?xml version="1.0" encoding="UTF-8"?>
<svg width="172px" height="50px" viewBox="0 0 172 50" version="1.1" xmlns="http://www.w3.org/2000/svg" xmlns:xlink="http://www.w3.org/1999/xlink">
    <!-- Generator: Sketch 52.4 (67378) - http://www.bohemiancoding.com/sketch -->
    <title>resorces/btn_google_play@2x</title>
    <desc>Created with Sketch.</desc>
    <g id="resorces/btn_google_play" stroke="none" stroke-width="1" fill="none" fill-rule="evenodd">
        <g id="btn_google_play">
            <rect id="Rectangle-1" stroke="#9B9B9B" stroke-width="2" x="1" y="1" width="170" height="48" rx="10"></rect>
            <path d="M113.912534,29.9288938 L112.765184,31.0243056 C112.500028,31.171751 112.236294,31.3429315 111.973271,31.4644841 C111.176382,31.8305804 110.365986,31.9226438 109.645871,31.9226438 C108.87955,31.9226438 107.678173,31.8722966 106.452627,30.9753968 C104.750085,29.7620288 104.005801,27.6762153 104.005801,25.8586806 C104.005801,22.0955853 107.033411,20.25 109.502986,20.25 C110.365986,20.25 111.252445,20.4686508 111.973271,20.9296875 C113.171804,21.7316468 113.481745,22.7738343 113.653776,23.3319692 L108.014417,25.6371528 L106.167567,25.7824405 C106.765412,28.868006 108.828367,30.6625248 111.108138,30.6625248 C112.246957,30.6625248 113.092186,30.2863591 113.867749,29.8986855 C113.867749,29.8986855 114.02343,29.8166915 113.912534,29.9288938 L113.912534,29.9288938 Z M110.510293,23.7915675 L106.143397,25.7090774 C106.119228,25.2732143 106.070888,24.8373512 106.070888,24.4281002 C106.070888,21.8057292 107.870109,21.0505208 108.828367,21.0505208 C110.122157,21.0505208 111.206239,22.1703869 111.206239,23.1399306 C111.206239,23.4779762 110.968096,23.6232639 110.510293,23.7915675 Z M102.121275,29.7411706 C102.121275,30.6841022 102.287619,30.8308284 103.075978,30.9049107 C103.486863,30.9538194 103.896326,30.9753968 104.301524,31.0243056 L103.414354,31.5587054 L99.1867891,31.5587054 C99.7412705,30.8308284 99.8365275,30.7581845 99.8365275,30.2734127 L99.8365275,29.7318204 L99.8272862,15.3008681 L97.9605323,15.3008681 L99.7576206,14.4248264 L103.188296,14.4248264 C102.444722,14.8606895 102.222219,15.1260913 102.126962,15.9755208 L102.121275,29.7411706 Z M95.5648885,21.4410714 C96.1158155,21.8992312 97.265298,22.8716518 97.265298,24.7157986 C97.265298,26.5131944 96.2636772,27.3604663 95.2535259,28.1624256 C94.9435851,28.4781746 94.5810396,28.8205357 94.5810396,29.3499008 C94.5810396,29.8871776 94.9435851,30.1784722 95.2044757,30.3956845 L96.0710305,31.072495 C97.124545,31.9722718 98.0849352,32.797247 98.0849352,34.4730903 C98.0849352,36.7559772 95.9011317,39.0582837 91.7745109,39.0582837 C88.2983394,39.0582837 86.6178344,37.3831597 86.6178344,35.5872024 C86.6178344,34.7133185 87.0479129,33.475496 88.4668164,32.627505 C89.9539638,31.7075893 91.9685794,31.5845982 93.0476854,31.5126736 C92.7107313,31.072495 92.3261488,30.6114583 92.3261488,29.859127 C92.3261488,29.4477183 92.448419,29.2024554 92.566424,28.9133185 C92.3041117,28.9384921 92.0396667,28.9643849 91.7993915,28.9643849 C89.2551752,28.9643849 87.817078,27.043998 87.817078,25.1516617 C87.817078,24.0353919 88.3203765,22.7968502 89.3539866,21.8992312 C90.7217072,20.7599454 92.3524511,20.5635913 93.6483735,20.5635913 L98.591788,20.5635913 L97.0548794,21.4410714 L95.5648885,21.4410714 Z M93.8651899,32.2160962 C93.668278,32.1902034 93.550273,32.1902034 93.3128412,32.1902034 C93.0953139,32.1902034 91.7993915,32.2376736 90.7956381,32.5785962 C90.2646156,32.7749504 88.7298396,33.3553819 88.7298396,35.0794147 C88.7298396,36.7998512 90.3868858,38.0405506 92.9502957,38.0405506 C95.2535259,38.0405506 96.4762284,36.9235615 96.4762284,35.4196181 C96.4762284,34.1817956 95.6850262,33.5287202 93.8651899,32.2160962 L93.8651899,32.2160962 Z M94.5547373,27.6042907 C94.1751308,27.9883681 93.5282359,28.2839782 92.9268369,28.2839782 C90.8660146,28.2839782 89.9290833,25.588244 89.9290833,23.962748 C89.9290833,23.3319692 90.0506426,22.6760169 90.4565514,22.1703869 C90.8390014,21.6820188 91.5129095,21.3662698 92.1349238,21.3662698 C94.128924,21.3662698 95.157558,24.0850198 95.157558,25.83063 C95.157558,26.2700893 95.1092186,27.043998 94.5547373,27.6042907 Z M80.6919927,31.8722966 C76.8788672,31.8722966 74.8386601,28.868006 74.8386601,26.1478175 C74.8386601,22.9694692 77.4034918,20.25 81.0516947,20.25 C84.5783383,20.25 86.7870223,23.0435516 86.7870223,25.9766369 C86.7870223,28.8413938 84.6039297,31.8722966 80.6919927,31.8722966 Z M83.691879,29.908755 C83.1395303,30.6841022 82.1819836,31.1437004 81.2436306,31.1437004 C78.3361579,31.1437004 77.1646383,27.1885665 77.1646383,24.7906002 C77.1646383,23.743378 77.3316936,22.6760169 78.2686249,21.8265873 C78.8430107,21.3159226 79.6398999,21.0030506 80.4311021,21.0030506 C83.4061078,21.0030506 84.4127047,25.0797371 84.4127047,27.2173363 C84.4127047,28.1624256 84.2719518,29.1319692 83.691879,29.908755 Z M67.9254152,31.8722966 C64.1115787,31.8722966 62.0749261,28.868006 62.0749261,26.1478175 C62.0749261,22.9694692 64.6404686,20.25 68.2872498,20.25 C71.8117607,20.25 74.0183121,23.0435516 74.0183121,25.9766369 C74.0183121,28.8413938 71.838063,31.8722966 67.9254152,31.8722966 Z M70.9260123,29.908755 C70.3722418,30.6841022 69.4161169,31.1437004 68.4798965,31.1437004 C65.5773999,31.1437004 64.4009042,27.1885665 64.4009042,24.7906002 C64.4009042,23.743378 64.5672486,22.6760169 65.5056017,21.8265873 C66.0814092,21.3159226 66.869768,21.0030506 67.6638137,21.0030506 C70.6359759,21.0030506 71.6454163,25.0797371 71.6454163,27.2173363 C71.6454163,28.1624256 71.5018198,29.1319692 70.9260123,29.908755 Z M60.5501024,31.0300595 L57.3341106,31.7751984 C56.0310794,31.9830605 54.8609816,32.165749 53.621929,32.165749 C47.4188467,32.165749 45.0551922,27.5460317 45.0551922,23.9303819 C45.0551922,19.5149306 48.4041174,15.4209821 54.1394449,15.4209821 C55.3529061,15.4209821 56.5201604,15.6015129 57.5836272,15.8949653 C59.2691083,16.3739831 60.057467,16.9644841 60.5501024,17.3104415 L58.6819268,19.1056796 L57.8942789,19.2840526 L58.455869,18.3785218 C57.6952343,17.6269097 56.2969461,16.2394841 53.6432552,16.2394841 C50.0952855,16.2394841 47.4188467,18.9683036 47.4188467,22.9522073 C47.4188467,27.231002 50.4748919,31.2559028 55.3763649,31.2559028 C56.8165946,31.2559028 57.5580357,30.9631696 58.2312329,30.6898562 L58.2312329,27.0217014 L54.8353901,27.2065476 L56.6353219,26.228373 L61.401018,26.228373 L60.8181017,26.7958581 C60.6609986,26.9310764 60.6396724,26.9771081 60.5955983,27.1583581 C60.5721394,27.365501 60.5501024,28.0243304 60.5501024,28.2559276 L60.5501024,31.0300595 Z M120.827201,30.0324653 L120.827201,36.2143849 L119.61374,36.2143849 L119.61374,20.483755 L120.827201,20.483755 L120.827201,22.2753968 C121.617692,21.1174107 123.062187,20.1996528 124.739849,20.1996528 C127.748976,20.1996528 129.775677,22.5091518 129.775677,26.1650794 C129.775677,29.7965526 127.748976,32.1542411 124.739849,32.1542411 C123.156023,32.1542411 121.737119,31.3278274 120.827201,30.0324653 Z M128.471935,26.1650794 C128.471935,28.9248264 127.05232,31.0444444 124.535117,31.0444444 C122.971906,31.0444444 121.476939,29.7562748 120.827201,28.6702133 L120.827201,23.6347718 C121.476939,22.5508681 122.971906,21.3080109 124.535117,21.3080109 C127.05232,21.3080109 128.471935,23.4096478 128.471935,26.1650794 Z M131.432723,16.1402282 L132.645473,16.1402282 L132.645473,31.8708581 L131.432723,31.8708581 L131.432723,16.1402282 Z M146.261545,35.197371 C146.521013,35.3146081 146.963888,35.3865327 147.244683,35.3865327 C147.986835,35.3865327 148.50364,35.0794147 148.96784,33.9947917 L149.852878,31.9657986 L145.072964,20.483755 L146.426467,20.483755 L150.526786,30.4338046 L154.587295,20.483755 L155.959992,20.483755 L150.130118,34.3752728 C149.525165,35.8065724 148.573305,36.4948909 147.266009,36.4948909 C146.873607,36.4948909 146.356091,36.4244048 146.053259,36.3301835 L146.261545,35.197371 Z M142.717129,31.8370536 C142.63609,31.4421875 142.574955,31.0940724 142.530169,30.803497 C142.493204,30.5136409 142.471878,30.2173115 142.471878,29.9159474 C142.056017,30.5337798 141.466703,31.0480407 140.713888,31.4529762 C139.960362,31.8607887 139.244512,32.0607391 138.262796,32.0607391 C137.080613,32.0607391 136.162875,31.7665675 135.508161,31.1695933 C134.855579,30.5733383 134.527155,29.765625 134.527155,28.7435764 C134.527155,27.7229663 135.00273,26.8943948 135.951035,26.2607391 C136.89934,25.6242063 138.124886,25.3077381 139.64189,25.3077381 L142.471878,25.3077381 L142.471878,23.8929812 C142.471878,23.0780754 142.197481,22.4372272 141.649397,21.9725942 C141.099181,21.5072421 140.327172,21.2720486 139.326263,21.2720486 C138.411368,21.2720486 137.669216,21.4871032 137.104072,21.9057044 C136.543904,22.3329365 136.261687,22.8623016 136.261687,23.5002728 L135.019791,23.5002728 L134.994199,23.4391369 C134.949414,22.5789187 135.338262,21.8244296 136.165008,21.1727927 C136.988199,20.521875 138.066595,20.1946181 139.393795,20.1946181 C140.716731,20.1946181 141.787307,20.5168403 142.594148,21.1598462 C143.400279,21.796379 143.804766,22.7162946 143.804766,23.918874 L143.804766,29.5361855 C143.804766,29.9396825 143.823959,30.3295139 143.87372,30.7092758 C143.924903,31.0897569 144.006654,31.4695188 144.115417,31.8370536 L142.717129,31.8370536 Z M138.411368,30.9423115 C139.442135,30.9423115 140.182865,30.7092758 140.939945,30.2482391 C141.69205,29.7900794 142.203879,29.1923859 142.471878,28.4688244 L142.471878,26.2823165 L139.628384,26.2823165 C138.542169,26.2823165 137.642914,26.5254216 136.935595,27.0159474 C136.226854,27.5050347 135.867863,28.0969742 135.867863,28.7852927 C135.867863,29.4347718 136.095342,29.9540675 136.547458,30.347495 C137.000995,30.7452381 137.620877,30.9423115 138.411368,30.9423115 L138.411368,30.9423115 Z" id="Fill-1" fill="#9B9B9B"></path>
            <path d="M15.644745,36.1650748 C15.2542029,36.0598787 15,35.6721398 15,35.0721315 L15,15.2667399 C15,14.7110408 15.2152373,14.3362622 15.5564301,14.2 L15.5564301,14.2 L25.2892072,25.2372633 L15.644745,36.1650748 L15.644745,36.1650748 Z M16.9845317,35.7446698 L28.6997237,29.1048922 L25.8463222,25.8690486 L16.9845317,35.7446698 L16.9845317,35.7446698 Z M28.7803956,21.2815167 L17.2284674,14.7327498 L25.8632139,24.5868759 L28.7803956,21.2815167 L28.7803956,21.2815167 Z M29.5641845,21.7258452 L34.0895939,24.2912915 C34.946426,24.777028 34.9542618,25.56003 34.0895939,26.0500947 L29.4496961,28.679833 L26.4233025,25.226059 L29.5641845,21.7258452 L29.5641845,21.7258452 Z" id="google-play" fill="#9B9B9B"></path>
        </g>
    </g>
</svg>