<?xml version="1.0" encoding="UTF-8"?>
<svg width="56px" height="56px" viewBox="0 0 56 56" version="1.1" xmlns="http://www.w3.org/2000/svg" xmlns:xlink="http://www.w3.org/1999/xlink">
    <!-- Generator: Sketch 52.4 (67378) - http://www.bohemiancoding.com/sketch -->
    <title>resorces/img_avatar_teacher@2x</title>
    <desc>Created with Sketch.</desc>
    <defs>
        <circle id="path-1" cx="28" cy="28" r="28"></circle>
        <path d="M26.3030303,30.6750501 L26.3030303,34.5757576 L27.1515152,34.5757576 C35.5864095,34.5757576 42.4242424,41.4135905 42.4242424,49.8484848 L42.4242424,51.7575758 L0,51.7575758 L-1.77635684e-15,49.8484848 C-2.80933348e-15,41.4135905 6.83783291,34.5757576 15.2727273,34.5757576 L16.1212121,34.5757576 L16.1212121,30.6750501 C12.4648013,28.9380788 9.83653249,25.3881539 9.39805974,21.1869294 C8.1624901,21.0122578 7.21212121,19.9504475 7.21212121,18.6666667 L7.21212121,15.6969697 C7.21212121,14.4356985 8.12945495,13.3886822 9.33333333,13.1867096 L9.33333333,11.8787879 C9.33333333,5.31831449 14.6516478,1.20513941e-15 21.2121212,0 C27.7725946,-1.20513941e-15 33.0909091,5.31831449 33.0909091,11.8787879 L33.0909091,13.1867096 C34.2947875,13.3886822 35.2121212,14.4356985 35.2121212,15.6969697 L35.2121212,18.6666667 C35.2121212,19.9504475 34.2617523,21.0122578 33.0261827,21.1869294 C32.5877099,25.3881539 29.9594412,28.9380788 26.3030303,30.6750501 Z" id="path-3"></path>
        <path d="M22.3135398,6.16248681 C22.2865919,6.37112729 22.2727273,6.58348967 22.2727273,6.79885044 C22.2727273,9.72763321 24.8369146,12.1018807 28,12.1018807 C31.1630854,12.1018807 33.7272727,9.72763321 33.7272727,6.79885044 C33.7272727,6.58348967 33.7134081,6.37112729 33.6864602,6.16248681 L33.9393939,6.16248681 C42.3742883,6.16248681 49.2121212,13.0003197 49.2121212,21.4352141 L49.2121212,23.3333333 L6.78787879,23.3333333 L6.78787879,21.4352141 C6.78787879,13.0003197 13.6257117,6.16248681 22.0606061,6.16248681 L22.3135398,6.16248681 Z" id="path-5"></path>
        <rect id="path-7" x="0" y="0" width="56" height="59.3939394"></rect>
        <path d="M1.79482182,18.8137804 C1.73109577,19.0365828 1.6969697,19.2718819 1.6969697,19.5151515 L1.6969697,22.2727273 C1.6969697,23.5494053 2.63685137,24.6065621 3.86242623,24.7900094 C4.2322014,29.0849558 6.88740984,32.7266937 10.6060606,34.493232 L10.6060606,38.3939394 L9.75757576,38.3939394 C6.44445938,38.3939394 3.37774017,39.4488911 0.875007792,41.2412048 C0.308154675,39.6192828 3.77502688e-15,37.8759311 3.55271368e-15,36.0606061 L-3.55271368e-15,15.6969697 C-4.61438411e-15,7.02777271 7.02777271,1.59250565e-15 15.6969697,0 C24.3661667,-1.59250565e-15 31.3939394,7.02777271 31.3939394,15.6969697 L31.3939394,36.0606061 C31.3939394,37.8759311 31.0857847,39.6192828 30.5189316,41.2412048 C28.0161992,39.4488911 24.94948,38.3939394 21.6363636,38.3939394 L20.7878788,38.3939394 L20.7878788,34.493232 C24.5065296,32.7266937 27.161738,29.0849558 27.5315132,24.7900094 C28.757088,24.6065621 29.6969697,23.5494053 29.6969697,22.2727273 L29.6969697,19.5151515 C29.6969697,19.156827 29.6229302,18.8157954 29.4893152,18.5065205 C26.7410089,18.0423695 23.6469967,16.9206184 20.6073489,15.165677 C18.0339469,13.6799226 15.8340992,11.9335028 14.1420169,10.1292537 C14.8689205,11.8067583 15.7491374,13.2762511 16.7826678,14.537732 C14.0939932,13.3661999 12.2632861,11.4826387 11.2905465,8.88704818 C11.2103996,9.08261103 11.1269253,9.27795124 11.040102,9.47295954 C8.95298875,14.1606927 5.42842181,17.5386053 1.79482182,18.8137804 Z" id="path-9"></path>
        <path d="M17.0682526,3.47754015 C17.8988199,1.79426901 19.6323701,0.636363636 21.6363636,0.636363636 C23.5284193,0.636363636 25.1794003,1.66852654 26.0569529,3.20049838 C26.1015569,3.18831978 26.148504,3.18181818 26.1969697,3.18181818 L27.8939394,3.18181818 C28.1868177,3.18181818 28.4242424,3.41924294 28.4242424,3.71212121 C28.4242424,4.00499949 28.1868177,4.24242424 27.8939394,4.24242424 L26.5073298,4.24242424 C26.650348,4.7121862 26.7272727,5.2107461 26.7272727,5.72727273 C26.7272727,8.53890418 24.4479951,10.8181818 21.6363636,10.8181818 C18.8247322,10.8181818 16.5454545,8.53890418 16.5454545,5.72727273 C16.5454545,5.42565899 16.5716836,5.13017137 16.6219852,4.84296639 C16.6040521,3.91476136 15.8907627,3.18181818 15.0314218,3.18181818 C14.2387784,3.18181818 13.5703948,3.80540226 13.4573438,4.63061941 C13.5348882,4.98382865 13.5757576,5.35077791 13.5757576,5.72727273 C13.5757576,8.53890418 11.2964799,10.8181818 8.48484848,10.8181818 C5.67321703,10.8181818 3.39393939,8.53890418 3.39393939,5.72727273 C3.39393939,5.2107461 3.4708641,4.7121862 3.61388232,4.24242424 L2.22727273,4.24242424 C1.93439445,4.24242424 1.6969697,4.00499949 1.6969697,3.71212121 C1.6969697,3.41924294 1.93439445,3.18181818 2.22727273,3.18181818 L3.92424242,3.18181818 C3.9727081,3.18181818 4.01965524,3.18831978 4.06425925,3.20049838 C4.94181179,1.66852654 6.59279286,0.636363636 8.48484848,0.636363636 C10.4686393,0.636363636 12.1874122,1.7710405 13.0275655,3.42679272 C13.4681954,2.76590628 14.201397,2.33333333 15.0314218,2.33333333 C15.8825084,2.33333333 16.6317957,2.78813778 17.0682526,3.47754015 Z M8.48484848,9.96969697 C10.8278747,9.96969697 12.7272727,8.07029894 12.7272727,5.72727273 C12.7272727,3.38424652 10.8278747,1.48484848 8.48484848,1.48484848 C6.14182227,1.48484848 4.24242424,3.38424652 4.24242424,5.72727273 C4.24242424,8.07029894 6.14182227,9.96969697 8.48484848,9.96969697 Z M21.6363636,9.96969697 C23.9793898,9.96969697 25.8787879,8.07029894 25.8787879,5.72727273 C25.8787879,3.38424652 23.9793898,1.48484848 21.6363636,1.48484848 C19.2933374,1.48484848 17.3939394,3.38424652 17.3939394,5.72727273 C17.3939394,8.07029894 19.2933374,9.96969697 21.6363636,9.96969697 Z" id="path-11"></path>
        <filter x="0.0%" y="0.0%" width="100.0%" height="100.0%" filterUnits="objectBoundingBox" id="filter-12">
            <feOffset dx="0" dy="0" in="SourceAlpha" result="shadowOffsetOuter1"></feOffset>
            <feColorMatrix values="0 0 0 0 0   0 0 0 0 0   0 0 0 0 0  0 0 0 0.1 0" type="matrix" in="shadowOffsetOuter1"></feColorMatrix>
        </filter>
    </defs>
    <g id="resorces/img_avatar_teacher" stroke="none" stroke-width="1" fill="none" fill-rule="evenodd">
        <g id="Icons/-Avatars-/ic_avatar_female_f">
            <mask id="mask-2" fill="white">
                <use xlink:href="#path-1"></use>
            </mask>
            <use id="Mask" fill="#F8E71C" fill-rule="evenodd" xlink:href="#path-1"></use>
            <g id="avatar-teacher-female" mask="url(#mask-2)">
                <g id="Avataaar/Default">
                    <g id="Body" stroke-width="1" fill-rule="evenodd" transform="translate(6.787879, 7.636364)">
                        <mask id="mask-4" fill="white">
                            <use xlink:href="#path-3"></use>
                        </mask>
                        <use fill="#D0C6AC" xlink:href="#path-3"></use>
                        <g id="Skin/ðŸ‘¶ðŸ¼-04-Light" mask="url(#mask-4)" fill="#EDB98A">
                            <g transform="translate(-6.787879, 0.000000)" id="Color">
                                <rect x="0" y="0" width="54.6424242" height="50.7393939"></rect>
                            </g>
                        </g>
                        <path d="M33.0909091,19.9393939 L33.0909091,21.6363636 C33.0909091,28.196837 27.7725946,33.5151515 21.2121212,33.5151515 C14.6516478,33.5151515 9.33333333,28.196837 9.33333333,21.6363636 L9.33333333,19.9393939 C9.33333333,26.4998673 14.6516478,31.8181818 21.2121212,31.8181818 C27.7725946,31.8181818 33.0909091,26.4998673 33.0909091,19.9393939 Z" id="Neck-Shadow" fill-opacity="0.100000001" fill="#000000" mask="url(#mask-4)"></path>
                    </g>
                    <g id="Clothing/Collar-+-Sweater" transform="translate(0.000000, 36.060606)">
                        <mask id="mask-6" fill="white">
                            <use xlink:href="#path-5"></use>
                        </mask>
                        <use id="Clothes" fill="#E6E6E6" fill-rule="evenodd" xlink:href="#path-5"></use>
                        <g id="Color/Palette/Pastel-Orange" mask="url(#mask-6)" fill="#FFDEB5" fill-rule="evenodd">
                            <rect id="ðŸ–Color" x="0" y="0" width="55.7786561" height="23.3333333"></rect>
                        </g>
                        <path d="M33.0909091,4.72595254 C34.4021676,5.69231213 35.2121212,7.02242683 35.2121212,8.49076986 C35.2121212,10.019226 34.334492,11.3979042 32.9273631,12.3724293 L31.7289487,11.428347 L30.7575758,11.4986427 L30.969697,10.8302265 L30.9532001,10.8172307 C32.247195,10.1506471 33.0909091,9.05765166 33.0909091,7.82235367 L33.0909091,4.72595254 Z M22.9090909,4.57577259 L22.9090909,7.82235367 C22.9090909,9.05765166 23.752805,10.1506471 25.0467999,10.8172307 L25.030303,10.8302265 L25.2424242,11.4986427 L24.2710513,11.428347 L22.974515,12.4497275 C21.5009458,11.4715226 20.5757576,10.0600935 20.5757576,8.49076986 C20.5757576,6.94480117 21.4736131,5.55206233 22.9090909,4.57577259 Z" id="Collar" fill="#F2F2F2" fill-rule="evenodd"></path>
                    </g>
                    <g id="Face" stroke-width="1" fill-rule="evenodd" transform="translate(16.121212, 17.393939)" fill="#000000">
                        <g id="Mouth/Default" transform="translate(0.424242, 11.030303)" fill-opacity="0.699999988">
                            <path d="M8.48484848,3.18181818 C8.48484848,4.82193653 9.81442711,6.15151515 11.4545455,6.15151515 C13.0946638,6.15151515 14.4242424,4.82193653 14.4242424,3.18181818" id="Mouth"></path>
                        </g>
                        <g id="Nose/Default" transform="translate(5.939394, 8.484848)" fill-opacity="0.16">
                            <path d="M3.39393939,1.6969697 C3.39393939,2.63418018 4.53357821,3.39393939 5.93939394,3.39393939 C7.34520967,3.39393939 8.48484848,2.63418018 8.48484848,1.6969697" id="Nose"></path>
                        </g>
                        <g id="Eyes/Default-ðŸ˜€" transform="translate(0.000000, 1.696970)" fill-opacity="0.599999964">
                            <circle id="Eye" cx="6.36363636" cy="4.66666667" r="1.27272727"></circle>
                            <circle id="Eye" cx="17.3939394" cy="4.66666667" r="1.27272727"></circle>
                        </g>
                        <g id="Eyebrow/Outline/Default" fill-opacity="0.599999964">
                            <g id="I-Browse" transform="translate(2.545455, 1.272727)">
                                <path d="M0.770052046,2.36697082 C1.60048743,1.19845658 3.87713449,0.543207893 5.8382178,1.02479585 C6.0657598,1.08067389 6.29551714,0.941512755 6.35139518,0.713970752 C6.40727322,0.486428749 6.26811208,0.25667141 6.04057008,0.200793371 C3.76310736,-0.358488643 1.12680901,0.400272371 0.0784328022,1.87545342 C-0.0572959813,2.0664388 -0.0125016588,2.33129296 0.178483722,2.46702174 C0.369469102,2.60275053 0.634323263,2.5579562 0.770052046,2.36697082 Z" id="Eyebrow" fill-rule="nonzero"></path>
                                <path d="M13.0730823,2.36697082 C13.9035177,1.19845658 16.1801648,0.543207893 18.1412481,1.02479585 C18.3687901,1.08067389 18.5985474,0.941512755 18.6544255,0.713970752 C18.7103035,0.486428749 18.5711424,0.25667141 18.3436004,0.200793371 C16.0661377,-0.358488643 13.4298393,0.400272371 12.3814631,1.87545342 C12.2457343,2.0664388 12.2905286,2.33129296 12.481514,2.46702174 C12.6724994,2.60275053 12.9373536,2.5579562 13.0730823,2.36697082 Z" id="Eyebrow" fill-rule="nonzero" transform="translate(15.484881, 1.281042) scale(-1, 1) translate(-15.484881, -1.281042) "></path>
                            </g>
                        </g>
                    </g>
                    <g id="Top" stroke-width="1" fill-rule="evenodd">
                        <mask id="mask-8" fill="white">
                            <use xlink:href="#path-7"></use>
                        </mask>
                        <g id="Mask"></g>
                        <g id="Top/Long-Hair/Straight-+-Strand" mask="url(#mask-8)">
                            <g transform="translate(-0.212121, 0.000000)">
                                <g id="Hair" stroke-width="1" fill="none" fill-rule="evenodd" transform="translate(12.515152, 3.818182)">
                                    <mask id="mask-10" fill="white">
                                        <use xlink:href="#path-9"></use>
                                    </mask>
                                    <use fill="#ECC797" xlink:href="#path-9"></use>
                                    <g id="Color/Hair/Brown-Dark" mask="url(#mask-10)" fill="#4A312C">
                                        <g transform="translate(-12.303030, -3.818182)" id="Color">
                                            <rect x="0" y="0" width="57.0181818" height="57.569697"></rect>
                                        </g>
                                    </g>
                                </g>
                                <path d="M12.5151515,23.0868289 C16.7459885,22.4319233 21.1250586,18.7494485 23.5552535,13.2911414 C23.6420768,13.0961331 23.7255511,12.9007928 23.805698,12.70523 C24.655201,14.9719845 26.15905,16.6956958 28.3172451,17.8763637 C28.627136,18.3420627 28.9539941,18.784741 29.2978193,19.2043987 C26.6091447,18.0328666 24.7784376,16.1493053 23.805698,13.5537148 C23.7255511,13.7492777 23.6420768,13.9446179 23.5552535,14.1396262 C21.1250586,19.5979333 16.7459885,23.2804081 12.5151515,23.9353137 L12.5151515,23.0868289 Z M43.9090909,22.544407 L43.9090909,23.3928918 C40.737226,23.2087594 36.8881458,22.00644 33.1225004,19.8323436 C30.9434427,18.5742641 29.0322253,17.129286 27.4703321,15.6205579 C27.1807714,15.0879591 26.9097168,14.5302517 26.6571684,13.9474355 C28.3492507,15.7516846 30.5490984,17.4981045 33.1225004,18.9838588 C36.8881458,21.1579552 40.737226,22.3602745 43.9090909,22.544407 Z" id="Shadow" fill-opacity="0.16" fill="#000000" fill-rule="evenodd"></path>
                                <g id="Facial-Hair/-Blank" fill="none" transform="translate(10.393939, 15.272727)"></g>
                                <g id="Top/_Resources/Round" fill="none" transform="translate(13.151515, 18.030303)">
                                    <g id="Lennon-Glasses">
                                        <use fill="black" fill-opacity="1" filter="url(#filter-12)" xlink:href="#path-11"></use>
                                        <use fill="#252C2F" fill-rule="evenodd" xlink:href="#path-11"></use>
                                    </g>
                                </g>
                            </g>
                        </g>
                    </g>
                </g>
            </g>
        </g>
    </g>
</svg>